<svg xmlns="http://www.w3.org/2000/svg" viewBox="0 0 69.2 89.9">
	<path fill="#fff" d="M68.8 41.3l-4.3-3.7 4.6-8.8c.2-.5.2-.7 0-1.2s-.7-.5-.9-.5h-9.4l-1.2-5.7c0-.5-.5-.7-.7-.9-.5-.2-.7 0-1.2.2l-9.8 7.2L47.4 10c0-.5-.2-.7-.5-.9-.2-.2-.7-.2-1.2-.2l-4.8 1.9-5.3-8.3c-.5-.7-1.6-.7-1.9 0l-5.3 8.3-4.8-1.9c-.5-.2-.7 0-1.2.2-.2.2-.5.7-.5.9l1.6 17.9-9.9-7.2c-.2-.2-.7-.2-1.2-.2-.5.2-.7.5-.7.9l-1.2 5.7H1.1c-.5 0-.7.2-.9.5-.2.5-.2.7 0 1.2l4.6 8.8-4.3 3.7c-.5.2-.5.7-.5 1.2s.2.7.7.9l19.8 8.8-2.1 8.3c0 .5 0 .9.2 1.2.2.2.7.5 1.2.2l13.6-4.1V70c0 .7.5 1.2 1.2 1.2s1.2-.5 1.2-1.2V47.6l15.4-9c.5-.2.7-.9.5-1.6-.2-.5-.9-.7-1.6-.5l-14.3 8.3V19.2c0-.7-.5-1.2-1.2-1.2s-1.2.5-1.2 1.2v25.5l-14.3-8.3c-.5-.2-1.2-.2-1.6.5-.2.5-.2 1.2.5 1.6l15.4 9v7.6l-12.2 3.7 1.9-7.2c.2-.5-.2-1.2-.7-1.4L3.2 41.8l3.7-3c.5-.5.5-.9.2-1.4L3 29.7h8.6c.5 0 .9-.5 1.2-.9l.9-4.8 10.6 7.6c.5.2.9.2 1.2 0 .5-.2.7-.7.7-1.2l-1.6-18.6 3.9 1.6c.5.2 1.2 0 1.4-.5l4.8-7.6 4.8 7.6c.2.5.9.7 1.4.5l3.9-1.6-1.6 18.6c0 .5.2.9.7 1.2.5.2.9.2 1.2 0L55.8 24l.9 4.8c0 .5.7.9 1.2.9h8.5l-4.1 7.8c-.2.5-.2 1.2.2 1.4l3.7 3.2L47 50.5c-.5.2-.7.7-.7 1.4l1.9 7.2-8.5-2.6c-.7-.2-1.2.2-1.4.7-.2.7.2 1.2.7 1.4l10.3 3.2h.2c.2 0 .5 0 .7-.2.2-.2.5-.7.2-1.2l-2.1-8.3 19.8-8.8c.5-.2.7-.5.7-.9.5-.4.5-.9 0-1.1zM1.1 86.7V74.6h1.2l8.1 10.6V74.6h.8v12.1h-.8L1.8 75.6v11.1h-.7zm12.3-2.4c0-1.8 1.2-2.7 3.5-2.7.8 0 1.7.1 2.7.2v-1.1c0-1.4-.9-2.1-2.6-2.1-1 0-1.9.1-2.9.4v-.8c1-.3 1.9-.4 2.9-.4 2.3 0 3.4 1 3.4 2.8v6.2H20l-.2-.8c-1.1.6-2.2.9-3.2.9-2.2-.2-3.2-.9-3.2-2.6zm3.4-1.9c-1.8 0-2.7.6-2.7 1.9 0 1.2.8 1.8 2.3 1.8 1.1 0 2.1-.3 3.1-.9v-2.7c-.9-.1-1.8-.1-2.7-.1zm6.3-6h.6l.1 1.4h2.7v.8h-2.6v5.7c0 1.2.4 1.8 1.3 1.8h1.3v.8h-1.3c-1.4 0-2.2-.8-2.2-2.4l.1-8.1zM35.7 78v8.9H35l-.1-1.2c-1 .8-2.2 1.2-3.4 1.2-2.1 0-3.1-1.1-3.1-3.3V78h.9v5.6c0 1.7.8 2.5 2.3 2.5 1.2 0 2.3-.4 3.2-1.2v-7l.9.1zm2.8 8.7v-8.9h.6l.1 1.5c.9-1 1.9-1.5 3-1.5v.8c-1.1 0-2.1.5-2.9 1.6v6.6l-.8-.1c0 .1 0 0 0 0zm8.9-8.7c2.5 0 3.6 1.4 3.6 4v.6h-6.8c0 2.3 1.2 3.5 3.7 3.5 1 0 1.9-.1 2.8-.4v.8c-.8.3-1.7.4-2.8.4-3.1 0-4.6-1.5-4.6-4.5.1-3 1.4-4.4 4.1-4.4zm-3.1 3.7h5.9c0-2.1-1-3.1-2.8-3.1-2 .1-3 1.1-3.1 3.1zm10-7v12.1h-.9V74.7h.9zm3.9 0v12.1h-.9V74.7h.9zm2.5 7.6c0-3.1 1.4-4.5 4.1-4.5 2.8 0 4.1 1.5 4.1 4.5 0 3.1-1.4 4.5-4.1 4.5-2.7 0-4-1.4-4.1-4.5zm4.2 3.9c2.2 0 3.2-1.3 3.2-3.7 0-2.5-1.1-3.7-3.2-3.7-2.2 0-3.2 1.2-3.2 3.7s1.1 3.7 3.2 3.7z" />
</svg>