<svg xmlns="http://www.w3.org/2000/svg" viewBox="83.5 15 135 30" fill="#3185ce">
	<path d="M113.8 32.1l-1.9-1.6 2-3.8c.1-.2.1-.3 0-.5s-.3-.2-.4-.2h-4.1l-.5-2.5c0-.2-.2-.3-.3-.4-.2-.1-.3 0-.5.1l-4.3 3.1.7-7.8c0-.2-.1-.3-.2-.4-.1-.1-.3-.1-.5-.1l-2.1.8-2.3-3.6c-.2-.3-.7-.3-.8 0l-2.3 3.6-2.1-.8c-.2-.1-.3 0-.5.1-.1.1-.2.3-.2.4l.7 7.8-4.3-3.1c-.1-.1-.3-.1-.5-.1-.2.1-.3.2-.3.4l-.5 2.5h-4.1c-.2 0-.3.1-.4.2-.1.2-.1.3 0 .5l2 3.8-1.9 1.6c-.2.1-.2.3-.2.5s.1.3.3.4l8.6 3.8-.9 3.6c0 .2 0 .4.1.5.1.1.3.2.5.1l5.9-1.8v5.3c0 .3.2.5.5.5s.5-.2.5-.5v-9.7l6.7-3.9c.2-.1.3-.4.2-.7-.1-.2-.4-.3-.7-.2l-6.2 3.6V22.5c0-.3-.2-.5-.5-.5s-.5.2-.5.5v11.1L92.3 30c-.2-.1-.5-.1-.7.2-.1.2-.1.5.2.7l6.7 3.9v3.3l-5.3 1.6.8-3.1c.1-.2-.1-.5-.3-.6l-8.3-3.7L87 31c.2-.2.2-.4.1-.6L85.3 27H89c.2 0 .4-.2.5-.4l.4-2.1 4.6 3.3c.2.1.4.1.5 0 .2-.1.3-.3.3-.5l-.7-8.1 1.7.7c.2.1.5 0 .6-.2l2.1-3.3 2.1 3.3c.1.2.4.3.6.2l1.7-.7-.7 8.1c0 .2.1.4.3.5.2.1.4.1.5 0l4.6-3.3.4 2.1c0 .2.3.4.5.4h3.7l-1.8 3.4c-.1.2-.1.5.1.6l1.6 1.4-8.3 3.7c-.2.1-.3.3-.3.6l.8 3.1-3.7-1.1c-.3-.1-.5.1-.6.3-.1.3.1.5.3.6l4.5 1.4h.1c.1 0 .2 0 .3-.1.1-.1.2-.3.1-.5l-.9-3.6 8.6-3.8c.2-.1.3-.2.3-.4.2-.2.2-.4 0-.5zM117.6 38.7V20.8h1.7l11.9 15.7V20.8h1.2v17.9h-1.1l-12.6-16.4v16.4h-1.1zM135.7 35c0-2.6 1.7-3.9 5.2-3.9 1.2 0 2.5.1 3.9.3v-1.6c0-2-1.3-3-3.8-3-1.4 0-2.7.2-4.2.6v-1.1c1.4-.4 2.8-.6 4.2-.6 3.4 0 5.1 1.4 5.1 4.1v9.1h-.8l-.3-1.3c-1.6.9-3.2 1.3-4.8 1.3-3-.2-4.5-1.4-4.5-3.9zm5.2-2.8c-2.6 0-3.9.9-3.9 2.8 0 1.8 1.1 2.6 3.3 2.6 1.6 0 3.1-.4 4.6-1.3v-3.9c-1.4-.1-2.8-.2-4-.2zM150.1 23.4h.9l.2 2.1h3.9v1.1h-3.8V35c0 1.7.6 2.6 1.9 2.6h1.9v1.1h-1.9c-2.1 0-3.2-1.2-3.2-3.5V23.4zM168.8 25.6v13.1h-1l-.1-1.7c-1.5 1.1-3.2 1.7-5.1 1.7-3.1 0-4.7-1.6-4.7-4.9v-8.2h1.3v8.3c0 2.5 1.1 3.7 3.4 3.7 1.7 0 3.3-.6 4.8-1.7V25.6h1.4zM172.8 38.7V25.6h.9l.2 2.2c1.3-1.5 2.8-2.2 4.4-2.2v1.1c-1.6 0-3 .8-4.2 2.3v9.8h-1.3zM186.1 25.6c3.6 0 5.4 2 5.4 6v.9h-10c0 3.4 1.8 5.2 5.5 5.2 1.5 0 2.8-.2 4-.6v1.1c-1.2.4-2.5.6-4 .6-4.5 0-6.8-2.2-6.8-6.7-.1-4.4 1.9-6.5 5.9-6.5zm-4.6 5.6h8.7c0-3.1-1.4-4.6-4.1-4.6-3 .1-4.5 1.6-4.6 4.6zM196.4 20.8v17.9h-1.3V20.8h1.3zM202.2 20.8v17.9h-1.3V20.8h1.3zM205.8 32.1c0-4.5 2-6.7 6.1-6.7s6.1 2.2 6.1 6.7-2 6.7-6.1 6.7c-4 0-6-2.2-6.1-6.7zm6.2 5.6c3.2 0 4.8-1.9 4.8-5.6 0-3.7-1.6-5.5-4.8-5.5-3.2 0-4.8 1.8-4.8 5.5s1.6 5.6 4.8 5.6z" />
</svg>